<svg width="47" height="32" viewBox="0 0 47 32" fill="none" xmlns="http://www.w3.org/2000/svg">
<rect x="0.5" width="46" height="32" rx="6" fill="white"/>
<rect x="1" y="0.5" width="45" height="31" rx="5.5" stroke="#474D66" stroke-opacity="0.1"/>
<path fill-rule="evenodd" clip-rule="evenodd" d="M14.8337 21.1444H12.0874L10.028 13.0565C9.93022 12.6845 9.72267 12.3556 9.41737 12.2006C8.65547 11.811 7.81591 11.501 6.90002 11.3446V11.0332H11.3241C11.9347 11.0332 12.3927 11.501 12.469 12.0442L13.5375 17.8782L16.2825 11.0332H18.9525L14.8337 21.1444ZM20.479 21.1444H17.8853L20.021 11.0332H22.6147L20.479 21.1444ZM25.9703 13.8343C26.0466 13.2898 26.5046 12.9784 27.0388 12.9784C27.8784 12.9002 28.7929 13.0566 29.5562 13.4448L30.0141 11.2678C29.2509 10.9564 28.4113 10.8 27.6494 10.8C25.1321 10.8 23.3003 12.2006 23.3003 14.1444C23.3003 15.6231 24.5978 16.3995 25.5137 16.8673C26.5046 17.3337 26.8862 17.6451 26.8099 18.1114C26.8099 18.811 26.0466 19.1224 25.2847 19.1224C24.3688 19.1224 23.4529 18.8892 22.6147 18.4997L22.1568 20.678C23.0727 21.0662 24.0635 21.2226 24.9794 21.2226C27.8021 21.2994 29.5562 19.9002 29.5562 17.8001C29.5562 15.1553 25.9703 15.0003 25.9703 13.8343ZM38.6334 21.1444L36.574 11.0332H34.3619C33.904 11.0332 33.446 11.3446 33.2934 11.811L29.4798 21.1444H32.1498L32.6828 19.667H35.9634L36.2687 21.1444H38.6334ZM34.7435 13.7562L35.5054 17.5669H33.3697L34.7435 13.7562Z" fill="#172B85"/>
</svg>
